<svg width="81" height="81" viewBox="0 0 81 81" fill="none" xmlns="http://www.w3.org/2000/svg">
<circle cx="40.5" cy="40.5" r="40.5" fill="white"/>
<path d="M23.6591 25.9091H27.1818V46.7045C27.1818 48.5606 26.8409 50.1373 26.1591 51.4347C25.4773 52.732 24.5161 53.7169 23.2756 54.3892C22.035 55.0616 20.572 55.3977 18.8864 55.3977C17.2955 55.3977 15.8797 55.1089 14.6392 54.5312C13.3987 53.9441 12.4233 53.1108 11.7131 52.0312C11.0028 50.9517 10.6477 49.6686 10.6477 48.1818H14.1136C14.1136 49.0057 14.3172 49.7254 14.7244 50.3409C15.1411 50.947 15.7093 51.4205 16.429 51.7614C17.1487 52.1023 17.9678 52.2727 18.8864 52.2727C19.8996 52.2727 20.7614 52.0597 21.4716 51.6335C22.1818 51.2074 22.7216 50.5824 23.0909 49.7585C23.4697 48.9252 23.6591 47.9072 23.6591 46.7045V25.9091ZM39.5256 55L31.571 25.9091H35.1506L41.2301 49.6023H41.5142L47.7074 25.9091H51.6847L57.8778 49.6023H58.1619L64.2415 25.9091H67.821L59.8665 55H56.2301L49.8097 31.8182H49.5824L43.1619 55H39.5256Z" fill="black"/>
</svg>
