<?xml version="1.0" encoding="UTF-8"?>
<svg xmlns="http://www.w3.org/2000/svg" version="1.1" width="1024" height="1024" viewBox="0 0 500 500"><rect x="0" y="0" width="500" height="500" fill="#ffffff"/><g transform="scale(16.129)"><g transform="translate(1,1)"><g><g transform="translate(3.5,3.5)"><path fill-rule="evenodd" d="M-3.5 -3.5L3.5 -3.5L3.5 3.5L-3.5 3.5ZM-2.5 -2.5L-2.5 2.5L2.5 2.5L2.5 -2.5Z" fill="#000000"/><path fill-rule="evenodd" d="M-1.5 -1.5L1.5 -1.5L1.5 1.5L-1.5 1.5Z" fill="#000000"/></g></g><g><g transform="translate(25.5,3.5)"><g transform="rotate(90)"><path fill-rule="evenodd" d="M-3.5 -3.5L3.5 -3.5L3.5 3.5L-3.5 3.5ZM-2.5 -2.5L-2.5 2.5L2.5 2.5L2.5 -2.5Z" fill="#000000"/><path fill-rule="evenodd" d="M-1.5 -1.5L1.5 -1.5L1.5 1.5L-1.5 1.5Z" fill="#000000"/></g></g></g><g><g transform="translate(3.5,25.5)"><g transform="rotate(-90)"><path fill-rule="evenodd" d="M-3.5 -3.5L3.5 -3.5L3.5 3.5L-3.5 3.5ZM-2.5 -2.5L-2.5 2.5L2.5 2.5L2.5 -2.5Z" fill="#000000"/><path fill-rule="evenodd" d="M-1.5 -1.5L1.5 -1.5L1.5 1.5L-1.5 1.5Z" fill="#000000"/></g></g></g><path fill-rule="evenodd" d="M9 0L9 1L10 1L10 0ZM13 0L13 3L12 3L12 2L11 2L11 3L10 3L10 2L8 2L8 8L9 8L9 10L5 10L5 9L7 9L7 8L2 8L2 9L4 9L4 10L0 10L0 11L1 11L1 12L0 12L0 13L1 13L1 15L2 15L2 17L1 17L1 16L0 16L0 21L1 21L1 18L4 18L4 19L3 19L3 20L2 20L2 21L3 21L3 20L4 20L4 21L7 21L7 20L8 20L8 22L10 22L10 21L12 21L12 20L14 20L14 21L16 21L16 22L15 22L15 23L14 23L14 24L15 24L15 25L13 25L13 24L12 24L12 23L13 23L13 22L11 22L11 23L10 23L10 24L9 24L9 23L8 23L8 27L9 27L9 25L11 25L11 24L12 24L12 26L13 26L13 29L17 29L17 28L18 28L18 29L20 29L20 28L18 28L18 27L19 27L19 25L20 25L20 26L21 26L21 25L23 25L23 27L24 27L24 25L25 25L25 23L26 23L26 25L29 25L29 23L27 23L27 22L28 22L28 20L29 20L29 19L28 19L28 18L29 18L29 17L27 17L27 18L26 18L26 17L24 17L24 16L25 16L25 15L27 15L27 16L29 16L29 14L28 14L28 13L27 13L27 14L26 14L26 13L24 13L24 12L26 12L26 11L27 11L27 10L28 10L28 9L27 9L27 8L22 8L22 9L24 9L24 10L25 10L25 11L19 11L19 10L21 10L21 6L20 6L20 7L19 7L19 4L18 4L18 3L16 3L16 0L15 0L15 1L14 1L14 0ZM19 0L19 1L17 1L17 2L19 2L19 3L20 3L20 5L21 5L21 3L20 3L20 1L21 1L21 0ZM14 2L14 3L13 3L13 4L11 4L11 5L10 5L10 4L9 4L9 5L10 5L10 6L9 6L9 7L10 7L10 9L11 9L11 12L10 12L10 13L11 13L11 14L12 14L12 15L10 15L10 16L9 16L9 13L6 13L6 14L7 14L7 15L5 15L5 13L2 13L2 12L4 12L4 11L5 11L5 10L4 10L4 11L2 11L2 12L1 12L1 13L2 13L2 14L3 14L3 15L5 15L5 19L4 19L4 20L7 20L7 19L8 19L8 20L10 20L10 19L13 19L13 18L12 18L12 15L13 15L13 17L15 17L15 16L17 16L17 18L16 18L16 19L14 19L14 20L16 20L16 21L17 21L17 22L18 22L18 23L15 23L15 24L17 24L17 25L16 25L16 26L15 26L15 28L17 28L17 27L16 27L16 26L18 26L18 25L19 25L19 24L18 24L18 23L19 23L19 22L20 22L20 20L19 20L19 19L20 19L20 18L21 18L21 19L23 19L23 18L24 18L24 19L25 19L25 20L27 20L27 19L25 19L25 18L24 18L24 17L23 17L23 18L21 18L21 17L22 17L22 16L19 16L19 15L25 15L25 14L24 14L24 13L23 13L23 14L21 14L21 13L22 13L22 12L21 12L21 13L20 13L20 12L19 12L19 11L18 11L18 12L17 12L17 11L14 11L14 12L13 12L13 11L12 11L12 9L15 9L15 8L16 8L16 9L17 9L17 10L19 10L19 9L20 9L20 8L19 8L19 7L18 7L18 6L17 6L17 5L18 5L18 4L14 4L14 3L15 3L15 2ZM15 5L15 6L14 6L14 8L15 8L15 6L16 6L16 8L17 8L17 9L18 9L18 8L17 8L17 6L16 6L16 5ZM10 6L10 7L11 7L11 6ZM12 6L12 8L13 8L13 6ZM0 8L0 9L1 9L1 8ZM26 9L26 10L27 10L27 9ZM9 10L9 11L10 11L10 10ZM6 11L6 12L8 12L8 11ZM28 11L28 12L29 12L29 11ZM14 12L14 13L17 13L17 12ZM18 12L18 14L15 14L15 15L14 15L14 16L15 16L15 15L17 15L17 16L18 16L18 17L19 17L19 16L18 16L18 15L19 15L19 12ZM7 15L7 16L6 16L6 17L8 17L8 18L9 18L9 19L10 19L10 18L11 18L11 16L10 16L10 17L9 17L9 16L8 16L8 15ZM3 16L3 17L4 17L4 16ZM6 18L6 19L7 19L7 18ZM17 18L17 19L16 19L16 20L17 20L17 19L19 19L19 18ZM18 21L18 22L19 22L19 21ZM21 21L21 24L24 24L24 21ZM25 21L25 22L27 22L27 21ZM22 22L22 23L23 23L23 22ZM26 26L26 27L25 27L25 28L24 28L24 29L27 29L27 27L28 27L28 28L29 28L29 27L28 27L28 26ZM10 27L10 29L11 29L11 28L12 28L12 27ZM8 28L8 29L9 29L9 28ZM21 28L21 29L23 29L23 28Z" fill="#000000"/></g></g></svg>
