<svg width="106" height="596" viewBox="0 0 106 596" fill="none" xmlns="http://www.w3.org/2000/svg">
<path d="M67 595.464H42L26.5 530.464L36 504.964V294.464H1V269.964L18.5 239.964L1 215.964V42.9635C39 -33.0365 86.1667 11.2969 105 42.9635V223.464C67 235.064 89.1667 259.297 105 269.964V294.464H67V504.964L77.5 530.464L67 595.464Z" fill="black" stroke="black"/>
<path d="M100.5 58C88.1667 79.3333 60.3 119.3 5.5 112.5" stroke="#F9F9F9" stroke-width="3"/>
<path d="M100.5 100C88.1667 121.333 60.3 161.3 5.5 154.5" stroke="#F9F9F9" stroke-width="3"/>
<path d="M100.5 128C88.1667 149.333 60.3 189.3 5.5 182.5" stroke="white" stroke-width="3"/>
<path d="M100.5 80C88.1667 101.333 60.3 141.3 5.5 134.5" stroke="#F9F9F9" stroke-width="3"/>
</svg>
